ffmpeg started on 2016-12-07 at 08:56:10
Report written to "Output/x264/results/ffmpeg/crowd_run_2160p50slow4000k.log"
Command line:
Tools/ffmpeg/ffmpeg -benchmark -y -i Input/y4m/crowd_run_2160p50.y4m -c:v libx264 -preset slow -b:v 4000k -an Output/x264/encoded/crowd_run_2160p50slow4000k.mkv
ffmpeg version N-82227-gdb23fde Copyright (c) 2000-2016 the FFmpeg developers
  built with gcc 5.4.0 (Ubuntu 5.4.0-6ubuntu1~16.04.2) 20160609
  configuration: --prefix=/home/jaroslav/ffmpeg_build --pkg-config-flags=--static --extra-cflags=-I/home/jaroslav/ffmpeg_build/include --extra-ldflags=-L/home/jaroslav/ffmpeg_build/lib --bindir=/home/jaroslav/bin --enable-gpl --enable-libass --enable-libfdk-aac --enable-libfreetype --enable-libmp3lame --enable-libopus --enable-libtheora --enable-libvorbis --enable-libvpx --enable-libx264 --enable-libx265 --enable-nvenc --enable-libmfx --enable-libxvid --enable-libgsm --enable-libopencore-amrnb --enable-version3 --enable-nonfree
  libavutil      55. 35.100 / 55. 35.100
  libavcodec     57. 66.101 / 57. 66.101
  libavformat    57. 57.100 / 57. 57.100
  libavdevice    57.  2.100 / 57.  2.100
  libavfilter     6. 66.100 /  6. 66.100
  libswscale      4.  3.100 /  4.  3.100
  libswresample   2.  4.100 /  2.  4.100
  libpostproc    54.  2.100 / 54.  2.100
Input #0, yuv4mpegpipe, from 'Input/y4m/crowd_run_2160p50.y4m':
  Duration: 00:00:10.00, start: 0.000000, bitrate: 4976642 kb/s
    Stream #0:0: Video: rawvideo (I420 / 0x30323449), yuv420p(progressive), 3840x2160, SAR 1:1 DAR 16:9, 50 fps, 50 tbr, 50 tbn, 50 tbc
[libx264 @ 0x3b5b1c0] using SAR=1/1
[libx264 @ 0x3b5b1c0] using cpu capabilities: MMX2 SSE2Fast SSSE3 SSE4.2 AVX FMA3 AVX2 LZCNT BMI2
[libx264 @ 0x3b5b1c0] profile High, level 5.2
[libx264 @ 0x3b5b1c0] 264 - core 148 - H.264/MPEG-4 AVC codec - Copyleft 2003-2016 - http://www.videolan.org/x264.html - options: cabac=1 ref=5 deblock=1:0:0 analyse=0x3:0x113 me=hex subme=8 psy=1 psy_rd=1.00:0.00 mixed_ref=1 me_range=16 chroma_me=1 trellis=2 8x8dct=1 cqm=0 deadzone=21,11 fast_pskip=1 chroma_qp_offset=-2 threads=6 lookahead_threads=1 sliced_threads=0 nr=0 decimate=1 interlaced=0 bluray_compat=0 constrained_intra=0 bframes=3 b_pyramid=2 b_adapt=1 b_bias=0 direct=3 weightb=1 open_gop=0 weightp=2 keyint=250 keyint_min=25 scenecut=40 intra_refresh=0 rc_lookahead=50 rc=abr mbtree=1 bitrate=4000 ratetol=1.0 qcomp=0.60 qpmin=0 qpmax=69 qpstep=4 ip_ratio=1.40 aq=1:1.00
Output #0, matroska, to 'Output/x264/encoded/crowd_run_2160p50slow4000k.mkv':
  Metadata:
    encoder         : Lavf57.57.100
    Stream #0:0: Video: h264 (libx264) (H264 / 0x34363248), yuv420p, 3840x2160 [SAR 1:1 DAR 16:9], q=-1--1, 4000 kb/s, 50 fps, 1k tbn, 50 tbc
    Metadata:
      encoder         : Lavc57.66.101 libx264
    Side data:
      cpb: bitrate max/min/avg: 0/0/4000000 buffer size: 0 vbv_delay: -1
Stream mapping:
  Stream #0:0 -> #0:0 (rawvideo (native) -> h264 (libx264))
Press [q] to stop, [?] for help
frame=   19 fps=0.0 q=0.0 size=       0kB time=00:00:00.00 bitrate=N/A speed=   0x    frame=   34 fps= 32 q=0.0 size=       0kB time=00:00:00.00 bitrate=N/A speed=   0x    frame=   43 fps= 24 q=0.0 size=       0kB time=00:00:00.00 bitrate=N/A speed=   0x    frame=   51 fps= 22 q=0.0 size=       0kB time=00:00:00.00 bitrate=N/A speed=   0x    frame=   57 fps= 11 q=0.0 size=       0kB time=00:00:00.00 bitrate=N/A speed=   0x    frame=   62 fps= 10 q=43.0 size=       1kB time=-00:00:00.01 bitrate=N/A speed=N/A    frame=   65 fps= 10 q=51.0 size=       1kB time=00:00:00.04 bitrate= 143.2kbits/s speed=0.00637x    frame=   71 fps= 10 q=53.0 size=       1kB time=00:00:00.16 bitrate=  36.5kbits/s speed=0.0228x    frame=   76 fps=9.7 q=58.0 size=       1kB time=00:00:00.26 bitrate=  22.5kbits/s speed=0.0332x    frame=   83 fps=9.7 q=57.0 size=       1kB time=00:00:00.40 bitrate=  14.6kbits/s speed=0.047x    frame=   91 fps=9.9 q=57.0 size=       1kB time=00:00:00.56 bitrate=  10.5kbits/s speed=0.061x    frame=   98 fps= 10 q=56.0 size=       1kB time=00:00:00.70 bitrate=   8.4kbits/s speed=0.0717x    frame=  104 fps= 10 q=56.0 size=       1kB time=00:00:00.82 bitrate=   7.2kbits/s speed=0.0791x    frame=  109 fps= 10 q=56.0 size=       1kB time=00:00:00.92 bitrate=   6.4kbits/s speed=0.0843x    frame=  115 fps= 10 q=56.0 size=       1kB time=00:00:01.04 bitrate=   5.6kbits/s speed=0.0909x    frame=  122 fps= 10 q=55.0 size=       1kB time=00:00:01.18 bitrate=   5.0kbits/s speed=0.0978x    frame=  128 fps= 10 q=55.0 size=       1kB time=00:00:01.30 bitrate=   4.5kbits/s speed=0.103x    frame=  132 fps= 10 q=55.0 size=       1kB time=00:00:01.38 bitrate=   4.3kbits/s speed=0.105x    frame=  139 fps= 10 q=55.0 size=       1kB time=00:00:01.52 bitrate=   3.9kbits/s speed=0.11x    frame=  146 fps= 10 q=54.0 size=       1kB time=00:00:01.66 bitrate=   3.5kbits/s speed=0.115x    frame=  152 fps= 10 q=54.0 size=       1kB time=00:00:01.78 bitrate=   3.3kbits/s speed=0.118x    frame=  159 fps= 10 q=54.0 size=       1kB time=00:00:01.92 bitrate=   3.1kbits/s speed=0.123x    frame=  162 fps=9.9 q=54.0 size=       1kB time=00:00:01.98 bitrate=   3.0kbits/s speed=0.122x    frame=  168 fps= 10 q=54.0 size=       1kB time=00:00:02.10 bitrate=   2.8kbits/s speed=0.125x    frame=  174 fps= 10 q=54.0 size=       1kB time=00:00:02.22 bitrate=   2.6kbits/s speed=0.128x    frame=  179 fps= 10 q=54.0 size=       1kB time=00:00:02.32 bitrate=   2.5kbits/s speed=0.129x    frame=  186 fps= 10 q=54.0 size=       1kB time=00:00:02.46 bitrate=   2.4kbits/s speed=0.132x    frame=  192 fps= 10 q=54.0 size=       1kB time=00:00:02.58 bitrate=   2.3kbits/s speed=0.135x    frame=  198 fps= 10 q=54.0 size=       1kB time=00:00:02.70 bitrate=   2.2kbits/s speed=0.138x    frame=  203 fps= 10 q=54.0 size=       1kB time=00:00:02.80 bitrate=   2.1kbits/s speed=0.139x    frame=  208 fps= 10 q=54.0 size=       1kB time=00:00:02.90 bitrate=   2.0kbits/s speed=0.14x    frame=  213 fps= 10 q=53.0 size=       1kB time=00:00:03.00 bitrate=   2.0kbits/s speed=0.141x    frame=  219 fps= 10 q=53.0 size=       1kB time=00:00:03.12 bitrate=   1.9kbits/s speed=0.143x    frame=  226 fps= 10 q=53.0 size=       1kB time=00:00:03.26 bitrate=   1.8kbits/s speed=0.146x    frame=  231 fps= 10 q=53.0 size=       1kB time=00:00:03.36 bitrate=   1.7kbits/s speed=0.147x    frame=  236 fps= 10 q=53.0 size=       1kB time=00:00:03.46 bitrate=   1.7kbits/s speed=0.147x    frame=  243 fps= 10 q=53.0 size=       1kB time=00:00:03.60 bitrate=   1.6kbits/s speed=0.149x    frame=  249 fps= 10 q=53.0 size=       1kB time=00:00:03.72 bitrate=   1.6kbits/s speed=0.151x    frame=  253 fps= 10 q=53.0 size=       1kB time=00:00:03.80 bitrate=   1.5kbits/s speed=0.151x    frame=  259 fps= 10 q=53.0 size=       1kB time=00:00:03.92 bitrate=   1.5kbits/s speed=0.152x    frame=  266 fps= 10 q=53.0 size=       1kB time=00:00:04.06 bitrate=   1.4kbits/s speed=0.155x    frame=  271 fps= 10 q=53.0 size=       1kB time=00:00:04.16 bitrate=   1.4kbits/s speed=0.156x    frame=  276 fps= 10 q=53.0 size=       1kB time=00:00:04.26 bitrate=   1.4kbits/s speed=0.155x    frame=  282 fps= 10 q=53.0 size=       1kB time=00:00:04.38 bitrate=   1.3kbits/s speed=0.156x    frame=  286 fps= 10 q=53.0 size=       1kB time=00:00:04.46 bitrate=   1.3kbits/s speed=0.156x    frame=  292 fps= 10 q=53.0 size=       1kB time=00:00:04.58 bitrate=   1.3kbits/s speed=0.157x    frame=  299 fps= 10 q=53.0 size=       1kB time=00:00:04.72 bitrate=   1.2kbits/s speed=0.158x    frame=  305 fps= 10 q=53.0 size=       1kB time=00:00:04.84 bitrate=   1.2kbits/s speed=0.159x    frame=  307 fps=9.6 q=54.0 size=       1kB time=00:00:04.88 bitrate=   1.2kbits/s speed=0.153x    frame=  315 fps=9.7 q=54.0 size=    2518kB time=00:00:05.04 bitrate=4091.5kbits/s speed=0.156x    frame=  321 fps=9.7 q=54.0 size=    2518kB time=00:00:05.16 bitrate=3996.4kbits/s speed=0.156x    frame=  326 fps=9.7 q=54.0 size=    2518kB time=00:00:05.26 bitrate=3920.4kbits/s speed=0.157x    frame=  333 fps=9.7 q=54.0 size=    2518kB time=00:00:05.40 bitrate=3818.8kbits/s speed=0.158x    frame=  339 fps=9.8 q=54.0 size=    2518kB time=00:00:05.52 bitrate=3735.8kbits/s speed=0.159x    frame=  342 fps=9.7 q=54.0 size=    2518kB time=00:00:05.58 bitrate=3695.6kbits/s speed=0.158x    frame=  349 fps=9.7 q=54.0 size=    2518kB time=00:00:05.72 bitrate=3605.2kbits/s speed=0.16x    frame=  354 fps=9.7 q=54.0 size=    2518kB time=00:00:05.82 bitrate=3543.3kbits/s speed=0.16x    frame=  359 fps=9.7 q=54.0 size=    2518kB time=00:00:05.92 bitrate=3483.4kbits/s speed=0.161x    frame=  365 fps=9.8 q=54.0 size=    2518kB time=00:00:06.04 bitrate=3414.2kbits/s speed=0.162x    frame=  371 fps=9.8 q=54.0 size=    2518kB time=00:00:06.16 bitrate=3347.7kbits/s speed=0.162x    frame=  375 fps=9.7 q=54.0 size=    2518kB time=00:00:06.24 bitrate=3304.8kbits/s speed=0.162x    frame=  381 fps=9.7 q=54.0 size=    2518kB time=00:00:06.36 bitrate=3242.5kbits/s speed=0.162x    frame=  388 fps=9.8 q=54.0 size=    2518kB time=00:00:06.50 bitrate=3172.6kbits/s speed=0.163x    frame=  394 fps=9.8 q=54.0 size=    2518kB time=00:00:06.62 bitrate=3115.1kbits/s speed=0.164x    frame=  398 fps=9.7 q=54.0 size=    2518kB time=00:00:06.70 bitrate=3077.9kbits/s speed=0.164x    frame=  405 fps=9.7 q=54.0 size=    2518kB time=00:00:06.84 bitrate=3015.0kbits/s speed=0.165x    frame=  411 fps=9.8 q=54.0 size=    2518kB time=00:00:06.96 bitrate=2963.0kbits/s speed=0.165x    frame=  416 fps=9.8 q=54.0 size=    2518kB time=00:00:07.06 bitrate=2921.0kbits/s speed=0.166x    frame=  422 fps=9.7 q=54.0 size=    2518kB time=00:00:07.18 bitrate=2872.2kbits/s speed=0.166x    frame=  427 fps=9.7 q=54.0 size=    2518kB time=00:00:07.28 bitrate=2832.8kbits/s speed=0.166x    frame=  433 fps=9.7 q=54.0 size=    2518kB time=00:00:07.40 bitrate=2786.8kbits/s speed=0.166x    frame=  440 fps=9.8 q=54.0 size=    2518kB time=00:00:07.54 bitrate=2735.1kbits/s speed=0.168x    frame=  443 fps=9.7 q=54.0 size=    2518kB time=00:00:07.60 bitrate=2713.5kbits/s speed=0.167x    frame=  448 fps=9.7 q=54.0 size=    2518kB time=00:00:07.70 bitrate=2678.3kbits/s speed=0.167x    frame=  453 fps=9.7 q=54.0 size=    2518kB time=00:00:07.80 bitrate=2643.9kbits/s speed=0.167x    frame=  459 fps=9.7 q=54.0 size=    2518kB time=00:00:07.92 bitrate=2603.9kbits/s speed=0.167x    frame=  465 fps=9.7 q=54.0 size=    2518kB time=00:00:08.04 bitrate=2565.0kbits/s speed=0.167x    frame=  472 fps=9.7 q=54.0 size=    2518kB time=00:00:08.18 bitrate=2521.1kbits/s speed=0.169x    frame=  475 fps=9.7 q=54.0 size=    2518kB time=00:00:08.24 bitrate=2502.8kbits/s speed=0.168x    frame=  481 fps=9.7 q=54.0 size=    2518kB time=00:00:08.36 bitrate=2466.8kbits/s speed=0.168x    frame=  487 fps=9.7 q=54.0 size=    2518kB time=00:00:08.48 bitrate=2431.9kbits/s speed=0.169x    frame=  491 fps=9.7 q=54.0 size=    2518kB time=00:00:08.56 bitrate=2409.2kbits/s speed=0.169x    frame=  497 fps=9.7 q=54.0 size=    2518kB time=00:00:08.68 bitrate=2375.9kbits/s speed=0.169x    frame=  500 fps=8.8 q=-1.0 Lsize=    5058kB time=00:00:09.94 bitrate=4168.3kbits/s speed=0.176x    
video:5054kB audio:0kB subtitle:0kB other streams:0kB global headers:0kB muxing overhead: 0.085852%
bench: utime=192.020s
bench: maxrss=2139848kB
[libx264 @ 0x3b5b1c0] frame I:2     Avg QP:42.93  size:147368
[libx264 @ 0x3b5b1c0] frame P:126   Avg QP:50.73  size: 19504
[libx264 @ 0x3b5b1c0] frame B:372   Avg QP:50.85  size:  6512
[libx264 @ 0x3b5b1c0] consecutive B-frames:  0.8%  0.0%  0.0% 99.2%
[libx264 @ 0x3b5b1c0] mb I  I16..4: 40.9% 54.9%  4.2%
[libx264 @ 0x3b5b1c0] mb P  I16..4:  8.1%  1.1%  0.0%  P16..4: 19.9%  1.0%  2.1%  0.0%  0.0%    skip:67.9%
[libx264 @ 0x3b5b1c0] mb B  I16..4:  0.1%  0.0%  0.0%  B16..8: 18.8%  0.2%  0.0%  direct: 0.3%  skip:80.7%  L0:32.4% L1:67.5% BI: 0.1%
[libx264 @ 0x3b5b1c0] final ratefactor: 45.75
[libx264 @ 0x3b5b1c0] 8x8 transform intra:18.3% inter:96.0%
[libx264 @ 0x3b5b1c0] direct mvs  spatial:98.9% temporal:1.1%
[libx264 @ 0x3b5b1c0] coded y,uvDC,uvAC intra: 6.0% 36.6% 3.0% inter: 0.3% 2.9% 0.0%
[libx264 @ 0x3b5b1c0] i16 v,h,dc,p: 53% 24%  7% 17%
[libx264 @ 0x3b5b1c0] i8 v,h,dc,ddl,ddr,vr,hd,vl,hu:  8%  4% 24% 12% 13% 12% 11%  9%  7%
[libx264 @ 0x3b5b1c0] i4 v,h,dc,ddl,ddr,vr,hd,vl,hu:  5%  3%  2% 16% 19% 15% 15% 10% 15%
[libx264 @ 0x3b5b1c0] i8c dc,h,v,p: 78%  9% 10%  3%
[libx264 @ 0x3b5b1c0] Weighted P-Frames: Y:1.6% UV:0.8%
[libx264 @ 0x3b5b1c0] ref P L0: 64.9%  0.6% 20.0%  6.8%  7.6%  0.1%
[libx264 @ 0x3b5b1c0] ref B L0: 88.9%  7.4%  2.7%  1.0%
[libx264 @ 0x3b5b1c0] ref B L1: 97.5%  2.5%
[libx264 @ 0x3b5b1c0] kb/s:4139.59
